<svg version="1.2" xmlns="http://www.w3.org/2000/svg" viewBox="0 0 735 212" width="735" height="212">
	<title>logo_text-svg</title>
	<style>
		.s0 { fill: #ea2845 } 
	</style>
	<g id="Layer">
		<path id="Layer" fill-rule="evenodd" class="s0" d="m127 4.2c-1.5 0-2.9 0.3-4.2 0.7 2.7 1.8 4.2 4.2 5 6.9 0 0.4 0.1 0.6 0.2 1q0.1 0.5 0.1 1c0.2 4.6-1.2 5.2-2.2 8-1.6 3.5-1.2 7.4 0.7 10.4 0.2 0.4 0.4 0.8 0.6 1.2-2-13.4 9.2-15.4 11.3-19.6 0.2-3.7-2.9-6.1-5.3-7.8-2.2-1.4-4.3-1.8-6.2-1.8zm16.9 3c-0.2 1.2-0.1 0.9-0.1 1.5-0.1 0.4-0.1 1-0.1 1.4q-0.2 0.6-0.4 1.3-0.2 0.6-0.4 1.3c-0.3 0.4-0.4 0.7-0.6 1.2-0.2 0.2-0.3 0.4-0.4 0.6q-0.2 0.3-0.4 0.5-0.4 0.6-0.8 1.1c-0.3 0.3-0.5 0.6-0.9 0.9v0.1c-0.3 0.2-0.7 0.5-1 0.8-1.1 0.9-2.4 1.5-3.6 2.3-0.4 0.3-0.7 0.5-1.1 0.8-0.3 0.3-0.6 0.5-1 0.8-0.3 0.4-0.6 0.7-0.9 1-0.3 0.4-0.6 0.7-0.8 1.1q-0.4 0.6-0.8 1.1c-0.2 0.5-0.3 0.8-0.5 1.2-0.2 0.5-0.4 0.8-0.5 1.3-0.1 0.4-0.2 0.9-0.3 1.3-0.1 0.2-0.1 0.5-0.1 0.7-0.1 0.2-0.1 0.4-0.1 0.6 0 0.5-0.1 0.9-0.1 1.4q0 0.4 0.1 0.9 0 0.6 0.1 1.3 0.1 0.7 0.3 1.3c0.1 0.4 0.2 0.9 0.4 1.3 0.1 0.3 0.3 0.5 0.4 0.7l-12.2-4.7c-2.1-0.6-4.1-1.1-6.2-1.6q-1.7-0.4-3.3-0.8-4.8-0.9-9.7-1.4c-0.1 0-0.2-0.1-0.3-0.1-3.2-0.3-6.3-0.5-9.5-0.5-2.3 0-4.7 0.2-6.9 0.3-3.3 0.2-6.5 0.7-9.8 1.2q-1.2 0.2-2.4 0.4-2.4 0.5-4.7 1.1-1.2 0.3-2.4 0.6c-0.8 0.3-1.6 0.7-2.3 1q-0.9 0.4-1.8 0.8c-0.1 0.1-0.2 0.1-0.2 0.1-0.6 0.3-1 0.5-1.5 0.8q-0.2 0-0.4 0.1c-0.6 0.3-1.2 0.6-1.6 0.9-0.4 0.1-0.8 0.3-1.1 0.5-0.2 0.1-0.4 0.2-0.5 0.3q-0.7 0.4-1.4 0.8-0.7 0.4-1.2 0.8c-0.4 0.2-0.8 0.4-1.1 0.7 0 0.1-0.1 0.1-0.1 0.1-0.4 0.2-0.7 0.5-1.1 0.8 0 0 0 0-0.1 0.1q-0.4 0.3-0.8 0.6c-0.1 0.1-0.2 0.2-0.3 0.2-0.2 0.2-0.5 0.5-0.8 0.7 0 0.1-0.1 0.2-0.2 0.2-0.3 0.3-0.6 0.6-0.9 0.9-0.1 0-0.1 0.1-0.1 0.1q-0.5 0.4-1 0.9c-0.1 0.1-0.1 0.1-0.1 0.1q-0.4 0.4-0.8 0.9c-0.1 0.1-0.3 0.2-0.4 0.3q-0.4 0.5-0.9 1c0 0.1-0.1 0.1-0.2 0.2-0.4 0.4-0.8 0.9-1.2 1.3q-0.1 0.1-0.2 0.2c-0.8 0.9-1.7 1.8-2.7 2.6-0.9 0.8-1.9 1.6-3 2.3-1 0.7-2 1.4-3.1 2q-1.6 0.9-3.4 1.6-1.7 0.7-3.4 1.3c-2.3 0.5-4.6 1.4-6.5 1.5-0.4 0-0.9 0.1-1.3 0.2q-0.8 0.1-1.4 0.3-0.6 0.2-1.3 0.5-0.6 0.2-1.2 0.6c-0.4 0.2-0.8 0.4-1.2 0.7-0.4 0.3-0.7 0.6-1.1 0.9-0.3 0.3-0.7 0.6-1 1-0.3 0.3-0.7 0.7-0.9 1-0.3 0.4-0.6 0.8-0.8 1.2-0.3 0.4-0.5 0.8-0.8 1.3-0.2 0.4-0.4 0.9-0.5 1.3q-0.3 0.7-0.5 1.4-0.2 0.7-0.3 1.3c0 0.1 0 0.1 0 0.2-0.1 0.4-0.1 1.1-0.2 1.4-0.1 0.4-0.1 0.7-0.1 1.1 0 0.2 0 0.4 0 0.6 0.1 0.4 0.2 0.7 0.3 1.1q0.1 0.4 0.3 0.9v0.1q0.3 0.4 0.6 0.9 0.3 0.5 0.7 1c0.3 0.2 0.6 0.6 0.9 0.8 0.3 0.3 0.6 0.6 1 0.9 1.3 1.1 1.6 1.5 3.3 2.3 0.2 0.2 0.5 0.3 0.8 0.4 0.1 0 0.1 0.1 0.2 0.1 0 0.1 0 0.2 0 0.3q0.1 0.6 0.3 1.2 0.2 0.8 0.4 1.3c0.2 0.3 0.3 0.6 0.4 1q0.1 0.1 0.2 0.2 0.3 0.7 0.6 1.2 0.4 0.6 0.8 1.1c0.3 0.3 0.6 0.7 0.9 1 0.3 0.3 0.7 0.6 1 0.9 0 0 0.1 0.1 0.1 0.1q0.5 0.4 1 0.7c0.4 0.3 0.7 0.5 1.2 0.7 0.3 0.2 0.8 0.4 1.2 0.6 0.3 0.2 0.7 0.3 1.1 0.4 0 0 0.1 0 0.2 0.1 0.2 0 0.4 0.1 0.7 0.1-0.2 2.9-0.3 5.6 0.2 6.6 0.4 1 2.8-2.2 5.1-5.9-0.3 3.6-0.5 7.9 0 9.2 0.6 1.3 3.8-2.8 6.6-7.4 37.6-8.7 72 17.3 75.6 54.1-0.7-5.7-7.8-8.9-11-8.1-1.6 3.9-4.3 8.9-8.7 12.1 0.4-3.5 0.2-7.1-0.5-10.6-1.2 4.8-3.5 9.4-6.6 13.3-5 0.4-10.1-2-12.7-5.7-0.2-0.2-0.3-0.5-0.5-0.7q-0.2-0.5-0.4-1.1-0.2-0.6-0.3-1.1c-0.1-0.4-0.1-0.8-0.1-1.2q0-0.4 0-0.8 0.1-0.5 0.3-1.1 0.2-0.6 0.4-1.1c0.2-0.4 0.4-0.8 0.6-1.1 0.9-2.6 0.9-4.6-0.7-5.9-0.3-0.2-0.7-0.3-1-0.5-0.2-0.1-0.5-0.2-0.7-0.2-0.2-0.1-0.3-0.1-0.4-0.2q-0.6-0.1-1.2-0.2-0.5-0.2-1.1-0.2c-0.4-0.1-0.8-0.1-1.1-0.1-0.3 0-0.6 0-0.8 0q-0.7 0.1-1.2 0.2-0.6 0.1-1.1 0.2-0.6 0.2-1.1 0.4c-0.4 0.2-0.7 0.3-1.1 0.5-0.3 0.1-0.6 0.3-1 0.5-12.4 8.1-5 27 3.4 32.5-3.1 0.5-6.4 1.2-7.3 1.9 0 0.1-0.1 0.1-0.1 0.1q3.4 2.1 7.2 3.6c3.4 1.1 7 2.1 8.6 2.5v0.1q6.6 1.3 13.4 0.9c23.5-1.6 42.8-19.5 46.3-43.1 0.1 0.5 0.2 0.9 0.3 1.4 0.1 1 0.4 2 0.5 3 0.1 0.5 0.1 1 0.2 1.4v0.2c0 0.5 0.1 1 0.1 1.4q0.1 0.9 0.1 1.8v0.8c0 0.3 0 0.6 0 0.9 0 0.3 0 0.6 0 0.9v0.7c0 0.4-0.1 0.7-0.1 1.1 0 0.2 0 0.4 0 0.7 0 0.4-0.1 0.7-0.1 1.2q0 0.2 0 0.4c-0.1 0.5-0.1 0.8-0.2 1.3q0 0.2 0 0.4c-0.1 0.6-0.2 1.1-0.2 1.6v0.1c-0.2 0.5-0.3 1-0.4 1.5v0.1q-0.1 0.8-0.3 1.5c0 0 0 0.1 0 0.2q-0.2 0.7-0.4 1.4v0.2c-0.2 0.5-0.3 1-0.4 1.5-0.1 0-0.1 0.1-0.1 0.1q-0.2 0.8-0.5 1.6c-0.2 0.5-0.3 1-0.5 1.5-0.3 0.5-0.4 1.1-0.6 1.5-0.2 0.6-0.5 1.1-0.7 1.6-0.2 0.5-0.4 1-0.7 1.5q-0.1 0.2-0.2 0.3c0 0.1 0 0.2-0.1 0.2-3.4 7-8.5 13.1-14.9 17.9q-0.6 0.4-1.3 0.9c-0.1 0.1-0.2 0.1-0.3 0.2q-0.6 0.4-1.2 0.8l0.1 0.3h0.1q1.1-0.1 2.2-0.3h0.1q2-0.3 4.1-0.7c0.4-0.1 0.8-0.2 1.2-0.3 0.3 0 0.5-0.1 0.7-0.2 0.4 0 0.8-0.1 1.1-0.2 0.4-0.1 0.7-0.1 1-0.2 5.3-1.3 10.5-3.1 15.4-5.1-8.4 11.5-19.8 20.8-33 26.9 6.1-0.4 12.2-1.4 18.1-3.1 21.4-6.4 39.4-20.7 50.2-40.1-2.2 12.2-7 23.9-14.3 34.1q7.8-5.1 14.2-11.8c11.9-12.4 19.7-28.2 22.4-45.1 1.8 8.4 2.3 17 1.5 25.6 38.4-53.5 3.2-108.9-11.5-123.6-0.1-0.1-0.1-0.1-0.1-0.2-0.1 0-0.1 0-0.1 0.1 0-0.1 0-0.1 0-0.1q0 0.9-0.1 1.9c-0.2 1.2-0.3 2.4-0.6 3.6q-0.4 1.7-0.9 3.5c-0.3 1.1-0.8 2.2-1.2 3.4-0.5 1-1 2.1-1.6 3.2-0.6 1-1.3 2.1-1.9 3q-1.1 1.5-2.2 2.9c-0.8 0.9-1.7 1.8-2.5 2.6-0.5 0.5-1 1-1.6 1.4-0.4 0.3-0.8 0.7-1.2 1-0.9 0.8-1.9 1.5-3 2.1-1 0.6-2 1.3-3.1 1.8q-1.7 0.8-3.3 1.5-1.7 0.6-3.5 1.1c-1.2 0.3-2.4 0.6-3.5 0.8-1.3 0.2-2.5 0.3-3.7 0.4q-1.2 0.1-2.5 0.1c-1.2 0-2.4-0.1-3.6-0.2-1.2-0.1-2.5-0.2-3.6-0.5-1.2-0.2-2.4-0.5-3.6-0.9 1.1-0.1 2.3-0.2 3.5-0.4q1.8-0.3 3.5-0.8 1.8-0.5 3.5-1.1c1.1-0.5 2.3-1 3.3-1.5 1.1-0.6 2.2-1.1 3.2-1.8 1-0.7 2-1.4 3-2.1q1.4-1.1 2.7-2.4c0.9-0.8 1.7-1.7 2.5-2.6q1.2-1.4 2.2-2.9c0.1-0.1 0.2-0.3 0.3-0.5q0.9-1.3 1.6-2.5 0.9-1.6 1.6-3.3 0.7-1.6 1.2-3.4c0.4-1.1 0.7-2.3 1-3.4 0.2-1.3 0.4-2.4 0.5-3.6 0.1-1.2 0.2-2.4 0.2-3.6q0-1.3-0.1-2.6c-0.1-1.2-0.3-2.3-0.4-3.5q-0.4-1.8-0.8-3.6c-0.4-1.1-0.8-2.3-1.2-3.4-0.4-1.1-1-2.2-1.5-3.3-0.6-1-1.2-2.1-1.8-3.1-0.7-1-1.4-2-2.1-2.9q-1.2-1.4-2.5-2.7c-0.4-0.4-0.9-0.9-1.3-1.4-2.4-1.8-4.9-3.6-7.4-5.2-0.4-0.2-0.7-0.3-1.1-0.5-1.7-1.1-3.4-1.7-5-2.2z"/>
		<path id="Nestorage" class="s0" aria-label="Nestorage"  d="m297.6 103.7v-44.9h17.2v74h-18.3l-26.9-44.8v44.8h-17.2v-74h18.3zm73.4 2.1v4.9h-30q0.3 3.6 1.6 5.6 1.4 2 4.3 2.9 2.9 0.8 8 0.8 6 0 13.2-1.7v13.8q-4.3 1-8 1.4-3.7 0.4-7.6 0.4-10.4 0-16.9-2.9-6.5-3-9.6-9.3-3.1-6.3-3.1-16.4 0-9 2.9-15.3 2.9-6.3 8.5-9.6 5.6-3.3 13.6-3.3 11.3 0 17.2 7.4 5.9 7.4 5.9 21.3zm-23.3-17.3q-2.3 0-3.7 1.1-1.4 1.1-2.2 3.6-0.8 2.6-0.8 7.1h13.3q-0.1-4.5-0.8-7.1-0.7-2.5-2.1-3.6-1.4-1.1-3.7-1.1zm45.8 45.4q-9.3 0-16.6-2.4v-13.6q7.6 2.5 16.2 2.5 4.2 0 6-1.1 1.8-1 1.8-3 0-1.4-0.8-2.2-0.7-0.8-2.6-1.2l-8.5-1.7q-6.9-1.4-10.4-5.4-3.4-3.9-3.4-10.7 0-5.5 2.8-9.5 2.9-4.1 8.5-6.3 5.7-2.2 14-2.2 7.3 0 13.8 1.6v13.7q-5.9-1.7-13-1.7-9.6 0-9.6 4.3 0 1.2 0.8 2 0.8 0.7 2.7 1.1l8.5 1.7q6.9 1.5 10.3 5.3 3.4 3.7 3.4 10.7 0 5.6-2.9 9.7-2.8 4-8.2 6.2-5.4 2.2-12.8 2.2zm59.1-15.1q1.7 0 5.1-0.5v14.4q-2.1 0.5-4.8 0.9-2.7 0.3-5.3 0.3-10.2 0-15.5-5.2-5.3-5.2-5.3-16.3v-20.3h-7.9v-14.1h7.9l3.3-19.1h14.7v19.1h12.8v14.1h-12.8v17.8q0 3.5 0.8 5.4 0.7 1.9 2.4 2.7 1.7 0.8 4.6 0.8zm34.8 15.1q-12.3 0-19.1-7-6.7-7.1-6.7-21.2 0-14.3 6.6-21.4 6.7-7.2 19.2-7.2 12.5 0 19.2 7.2 6.7 7.2 6.7 21.3 0 14.1-6.8 21.2-6.7 7.1-19.1 7.1zm0-13.4q2.7 0 4.3-1.2 1.7-1.3 2.5-4.5 0.9-3.2 0.9-9.1 0-6-0.9-9.3-0.9-3.3-2.5-4.6-1.7-1.3-4.3-1.3-2.5 0-4.2 1.3-1.6 1.3-2.5 4.6-0.9 3.3-0.9 9.2 0 5.9 0.9 9.2 0.8 3.2 2.4 4.5 1.7 1.2 4.3 1.2zm33.4 12.4v-54.9h14.7l1.4 7.4h0.8q1.9-4.3 5.3-6.2 3.5-2 8.1-2 1.9 0 4.2 0.4v16.4q-2.1-0.4-5.4-0.4-3.3 0-6.4 1.2-3.1 1.1-4.7 3.1v35zm57.4-55.8q8.9 0 14.3 2.3 5.4 2.2 7.9 7.4 2.6 5.1 2.6 13.8v32.3h-14.6l-1.3-5.5h-0.8q-2 3.4-5.3 5-3.4 1.5-7.7 1.5-5.1 0-8.9-2-3.8-2-5.9-5.6-2-3.7-2-8.5 0-8.2 5.3-12.6 5.4-4.5 17.1-5.2l6.6-0.5q0-3.2-1-5-1-1.8-3.4-2.6-2.3-0.8-6.4-0.8-3.2 0-6.9 0.5-3.6 0.5-6.9 1.5v-13.9q3.8-1 8.5-1.5 4.6-0.6 8.8-0.6zm1.4 44q3.5 0 5.9-2.2v-9.3l-4.5 0.3q-6.9 0.5-6.9 6 0 2.5 1.4 3.9 1.5 1.3 4.1 1.3zm51.8 34.8q-4.3 0-8.8-0.5-4.5-0.5-8.4-1.5v-14.1q8.2 2.1 15.6 2.1 7.1 0 10.3-2.7 3.2-2.8 3.2-9.2v-3.1h-0.8q-2 3.1-5.2 4.7-3.2 1.7-7.3 1.7-5.3 0-9.8-2.9-4.5-3-7.2-9-2.8-6-2.8-14.9 0-14.4 7.5-21.8 7.5-7.5 22.9-7.6 5.3 0 10.8 0.9 5.5 0.8 9.9 2.3v46.5q0 10.2-3.3 16.6-3.3 6.4-9.9 9.5-6.6 3-16.7 3zm6.1-37.3q1.6 0 3.1-0.5 1.6-0.5 2.7-1.4v-25.5q-2.2-0.5-4.3-0.5-5.3 0-7.9 3.3-2.6 3.2-2.6 10.9 0 5.3 1 8.3 1 3 3 4.2 1.9 1.2 5 1.2zm79.4-12.8v4.9h-29.9q0.2 3.6 1.6 5.6 1.3 2 4.2 2.9 2.9 0.8 8.1 0.8 5.9 0 13.1-1.7v13.8q-4.2 0.9-8 1.4-3.7 0.4-7.6 0.4-10.4 0-16.9-2.9-6.5-3-9.6-9.3-3.1-6.3-3.1-16.4 0-9 2.9-15.3 2.9-6.3 8.5-9.6 5.6-3.3 13.6-3.3 11.4 0 17.2 7.4 5.9 7.4 5.9 21.3zm-23.2-17.3q-2.3 0-3.8 1.1-1.4 1.1-2.2 3.6-0.7 2.6-0.8 7.1h13.3q0-4.5-0.8-7.1-0.7-2.5-2.1-3.6-1.4-1.1-3.6-1.1z"/>
	</g>
</svg>